STARTFONT 2.1
FONT -FontForge-Roboto-Book-R-Normal--7-70-75-75-P-39-ISO10646-1
SIZE 7 75 75
FONTBOUNDINGBOX 5 8 1 -2
COMMENT "Generated by fontforge, http://fontforge.sourceforge.net"
COMMENT "Copyright 2011 Google Inc. All Rights Reserved."
STARTPROPERTIES 41
FOUNDRY "FontForge"
FAMILY_NAME "Roboto"
WEIGHT_NAME "Book"
SLANT "R"
SETWIDTH_NAME "Normal"
ADD_STYLE_NAME ""
PIXEL_SIZE 7
POINT_SIZE 70
RESOLUTION_X 75
RESOLUTION_Y 75
SPACING "P"
AVERAGE_WIDTH 39
CHARSET_REGISTRY "ISO10646"
CHARSET_ENCODING "1"
FONTNAME_REGISTRY ""
CHARSET_COLLECTIONS "ISO8859-2 ISO8859-5 ISO8859-7 ISO8859-9 ISO8859-4 ISO10646-1"
FONT_NAME "Roboto-Regular"
FACE_NAME "Roboto"
COPYRIGHT "Copyright 2011 Google Inc. All Rights Reserved."
FONT_VERSION "2.137; 2017"
FONT_ASCENT 5
FONT_DESCENT 2
UNDERLINE_POSITION -1
UNDERLINE_THICKNESS 1
X_HEIGHT 3
CAP_HEIGHT 4
DEFAULT_CHAR 1
RAW_ASCENT 750
RAW_DESCENT 250
NORM_SPACE 2
RELATIVE_WEIGHT 40
RELATIVE_SETWIDTH 50
SUPERSCRIPT_X 0
SUPERSCRIPT_Y 3
SUPERSCRIPT_SIZE 4
SUBSCRIPT_X 0
SUBSCRIPT_Y 0
SUBSCRIPT_SIZE 4
FIGURE_WIDTH 4
AVG_LOWERCASE_WIDTH 38
AVG_UPPERCASE_WIDTH 46
ENDPROPERTIES
CHARS 96
STARTCHAR space
ENCODING 32
SWIDTH 428 0
DWIDTH 3 0
BBX 1 1 0 0
BITMAP
00
ENDCHAR
STARTCHAR exclam
ENCODING 33
SWIDTH 285 0
DWIDTH 2 0
BBX 1 5 1 0
BITMAP
80
80
80
00
80
ENDCHAR
STARTCHAR quotedbl
ENCODING 34
SWIDTH 461 0
DWIDTH 3 0
BBX 3 2 1 3
BITMAP
A0
A0
ENDCHAR
STARTCHAR numbersign
ENCODING 35
SWIDTH 857 0
DWIDTH 6 0
BBX 5 5 1 0
BITMAP
50
F8
50
F8
50
ENDCHAR
STARTCHAR dollar
ENCODING 36
SWIDTH 857 0
DWIDTH 6 0
BBX 5 5 1 0
BITMAP
78
A0
70
28
F0
ENDCHAR
STARTCHAR percent
ENCODING 37
SWIDTH 857 0
DWIDTH 6 0
BBX 5 5 1 0
BITMAP
88
10
20
40
88
ENDCHAR
STARTCHAR ampersand
ENCODING 38
SWIDTH 857 0
DWIDTH 6 0
BBX 5 5 1 0
BITMAP
60
80
68
90
68
ENDCHAR
STARTCHAR quotesingle
ENCODING 39
SWIDTH 285 0
DWIDTH 2 0
BBX 1 2 1 3
BITMAP
80
80
ENDCHAR
STARTCHAR parenleft
ENCODING 40
SWIDTH 483 0
DWIDTH 3 0
BBX 2 8 1 -2
BITMAP
40
40
80
80
80
80
40
40
ENDCHAR
STARTCHAR parenright
ENCODING 41
SWIDTH 489 0
DWIDTH 3 0
BBX 2 8 1 -2
BITMAP
80
80
40
40
40
40
80
80
ENDCHAR
STARTCHAR asterisk
ENCODING 42
SWIDTH 572 0
DWIDTH 4 0
BBX 3 3 1 2
BITMAP
A0
40
A0
ENDCHAR
STARTCHAR plus
ENCODING 43
SWIDTH 566 0
DWIDTH 4 0
BBX 3 3 1 1
BITMAP
40
E0
40
ENDCHAR
STARTCHAR comma
ENCODING 44
SWIDTH 285 0
DWIDTH 2 0
BBX 1 2 1 -1
BITMAP
80
80
ENDCHAR
STARTCHAR hyphen
ENCODING 45
SWIDTH 571 0
DWIDTH 4 0
BBX 3 1 1 2
BITMAP
E0
ENDCHAR
STARTCHAR period
ENCODING 46
SWIDTH 285 0
DWIDTH 2 0
BBX 1 1 1 0
BITMAP
80
ENDCHAR
STARTCHAR slash
ENCODING 47
SWIDTH 571 0
DWIDTH 4 0
BBX 3 6 1 0
BITMAP
20
20
40
40
80
80
ENDCHAR
STARTCHAR zero
ENCODING 48
SWIDTH 857 0
DWIDTH 6 0
BBX 5 5 1 0
BITMAP
70
98
A8
C8
70
ENDCHAR
STARTCHAR one
ENCODING 49
SWIDTH 857 0
DWIDTH 6 0
BBX 5 5 1 0
BITMAP
60
A0
20
20
F8
ENDCHAR
STARTCHAR two
ENCODING 50
SWIDTH 857 0
DWIDTH 6 0
BBX 5 5 1 0
BITMAP
F0
08
30
40
F8
ENDCHAR
STARTCHAR three
ENCODING 51
SWIDTH 857 0
DWIDTH 6 0
BBX 5 5 1 0
BITMAP
F0
08
70
08
F0
ENDCHAR
STARTCHAR four
ENCODING 52
SWIDTH 857 0
DWIDTH 6 0
BBX 5 5 1 0
BITMAP
30
50
90
F8
10
ENDCHAR
STARTCHAR five
ENCODING 53
SWIDTH 857 0
DWIDTH 6 0
BBX 5 5 1 0
BITMAP
F8
80
F0
08
F0
ENDCHAR
STARTCHAR six
ENCODING 54
SWIDTH 857 0
DWIDTH 6 0
BBX 5 5 1 0
BITMAP
78
80
F0
88
70
ENDCHAR
STARTCHAR seven
ENCODING 55
SWIDTH 857 0
DWIDTH 6 0
BBX 5 5 1 0
BITMAP
F8
08
10
20
40
ENDCHAR
STARTCHAR eight
ENCODING 56
SWIDTH 857 0
DWIDTH 6 0
BBX 5 5 1 0
BITMAP
70
88
70
88
70
ENDCHAR
STARTCHAR nine
ENCODING 57
SWIDTH 857 0
DWIDTH 6 0
BBX 5 5 1 0
BITMAP
70
88
78
08
70
ENDCHAR
STARTCHAR colon
ENCODING 58
SWIDTH 285 0
DWIDTH 2 0
BBX 1 4 1 0
BITMAP
80
00
00
80
ENDCHAR
STARTCHAR semicolon
ENCODING 59
SWIDTH 285 0
DWIDTH 2 0
BBX 1 5 1 -1
BITMAP
80
00
00
80
80
ENDCHAR
STARTCHAR less
ENCODING 60
SWIDTH 857 0
DWIDTH 6 0
BBX 5 5 1 0
BITMAP
18
60
80
60
18
ENDCHAR
STARTCHAR equal
ENCODING 61
SWIDTH 714 0
DWIDTH 5 0
BBX 4 3 1 1
BITMAP
F0
00
F0
ENDCHAR
STARTCHAR greater
ENCODING 62
SWIDTH 857 0
DWIDTH 6 0
BBX 5 5 1 0
BITMAP
C0
30
08
30
C0
ENDCHAR
STARTCHAR question
ENCODING 63
SWIDTH 614 0
DWIDTH 4 0
BBX 4 5 1 0
BITMAP
E0
10
60
00
40
ENDCHAR
STARTCHAR at
ENCODING 64
SWIDTH 1039 0
DWIDTH 7 0
BBX 5 5 1 0
BITMAP
70
88
A8
98
40
ENDCHAR
STARTCHAR A
ENCODING 65
SWIDTH 857 0
DWIDTH 6 0
BBX 5 5 1 0
BITMAP
70
88
88
F8
88
ENDCHAR
STARTCHAR B
ENCODING 66
SWIDTH 857 0
DWIDTH 6 0
BBX 5 5 1 0
BITMAP
F0
88
F0
88
F0
ENDCHAR
STARTCHAR C
ENCODING 67
SWIDTH 857 0
DWIDTH 6 0
BBX 5 5 1 0
BITMAP
78
80
80
80
78
ENDCHAR
STARTCHAR D
ENCODING 68
SWIDTH 857 0
DWIDTH 6 0
BBX 5 5 1 0
BITMAP
F0
88
88
88
F0
ENDCHAR
STARTCHAR E
ENCODING 69
SWIDTH 857 0
DWIDTH 6 0
BBX 5 5 1 0
BITMAP
F8
80
E0
80
F8
ENDCHAR
STARTCHAR F
ENCODING 70
SWIDTH 857 0
DWIDTH 6 0
BBX 5 5 1 0
BITMAP
F8
80
F0
80
80
ENDCHAR
STARTCHAR G
ENCODING 71
SWIDTH 857 0
DWIDTH 6 0
BBX 5 5 1 0
BITMAP
78
80
B8
88
78
ENDCHAR
STARTCHAR H
ENCODING 72
SWIDTH 857 0
DWIDTH 6 0
BBX 5 5 1 0
BITMAP
88
88
F8
88
88
ENDCHAR
STARTCHAR I
ENCODING 73
SWIDTH 857 0
DWIDTH 6 0
BBX 5 5 1 0
BITMAP
F8
20
20
20
F8
ENDCHAR
STARTCHAR J
ENCODING 74
SWIDTH 857 0
DWIDTH 6 0
BBX 5 5 1 0
BITMAP
08
08
88
88
70
ENDCHAR
STARTCHAR K
ENCODING 75
SWIDTH 857 0
DWIDTH 6 0
BBX 5 5 1 0
BITMAP
88
90
E0
90
88
ENDCHAR
STARTCHAR L
ENCODING 76
SWIDTH 857 0
DWIDTH 6 0
BBX 5 5 1 0
BITMAP
80
80
80
80
F8
ENDCHAR
STARTCHAR M
ENCODING 77
SWIDTH 857 0
DWIDTH 6 0
BBX 5 5 1 0
BITMAP
88
D8
A8
A8
88
ENDCHAR
STARTCHAR N
ENCODING 78
SWIDTH 857 0
DWIDTH 6 0
BBX 5 5 1 0
BITMAP
88
C8
A8
98
88
ENDCHAR
STARTCHAR O
ENCODING 79
SWIDTH 857 0
DWIDTH 6 0
BBX 5 5 1 0
BITMAP
70
88
88
88
70
ENDCHAR
STARTCHAR P
ENCODING 80
SWIDTH 857 0
DWIDTH 6 0
BBX 5 5 1 0
BITMAP
F0
88
F0
80
80
ENDCHAR
STARTCHAR Q
ENCODING 81
SWIDTH 857 0
DWIDTH 6 0
BBX 5 5 1 0
BITMAP
70
88
88
90
68
ENDCHAR
STARTCHAR R
ENCODING 82
SWIDTH 857 0
DWIDTH 6 0
BBX 5 5 1 0
BITMAP
F0
88
F0
90
88
ENDCHAR
STARTCHAR S
ENCODING 83
SWIDTH 857 0
DWIDTH 6 0
BBX 5 5 1 0
BITMAP
78
80
70
08
F0
ENDCHAR
STARTCHAR T
ENCODING 84
SWIDTH 857 0
DWIDTH 6 0
BBX 5 5 1 0
BITMAP
F8
20
20
20
20
ENDCHAR
STARTCHAR U
ENCODING 85
SWIDTH 857 0
DWIDTH 6 0
BBX 5 5 1 0
BITMAP
88
88
88
88
70
ENDCHAR
STARTCHAR V
ENCODING 86
SWIDTH 857 0
DWIDTH 6 0
BBX 5 5 1 0
BITMAP
88
88
88
50
20
ENDCHAR
STARTCHAR W
ENCODING 87
SWIDTH 857 0
DWIDTH 6 0
BBX 5 5 1 0
BITMAP
88
88
A8
A8
50
ENDCHAR
STARTCHAR X
ENCODING 88
SWIDTH 857 0
DWIDTH 6 0
BBX 5 5 1 0
BITMAP
88
50
20
50
88
ENDCHAR
STARTCHAR Y
ENCODING 89
SWIDTH 857 0
DWIDTH 6 0
BBX 5 5 1 0
BITMAP
88
88
70
20
20
ENDCHAR
STARTCHAR Z
ENCODING 90
SWIDTH 857 0
DWIDTH 6 0
BBX 5 5 1 0
BITMAP
F8
10
20
40
F8
ENDCHAR
STARTCHAR bracketleft
ENCODING 91
SWIDTH 428 0
DWIDTH 3 0
BBX 2 7 1 -1
BITMAP
C0
80
80
80
80
80
C0
ENDCHAR
STARTCHAR backslash
ENCODING 92
SWIDTH 571 0
DWIDTH 4 0
BBX 3 6 1 0
BITMAP
80
80
40
40
20
20
ENDCHAR
STARTCHAR bracketright
ENCODING 93
SWIDTH 428 0
DWIDTH 3 0
BBX 2 7 1 -1
BITMAP
C0
40
40
40
40
40
C0
ENDCHAR
STARTCHAR asciicircum
ENCODING 94
SWIDTH 559 0
DWIDTH 4 0
BBX 3 3 1 2
BITMAP
40
A0
A0
ENDCHAR
STARTCHAR underscore
ENCODING 95
SWIDTH 714 0
DWIDTH 5 0
BBX 4 1 1 -1
BITMAP
F0
ENDCHAR
STARTCHAR grave
ENCODING 96
SWIDTH 451 0
DWIDTH 3 0
BBX 2 2 1 3
BITMAP
80
40
ENDCHAR
STARTCHAR a
ENCODING 97
SWIDTH 857 0
DWIDTH 6 0
BBX 5 5 1 0
BITMAP
70
88
88
F8
88
ENDCHAR
STARTCHAR b
ENCODING 98
SWIDTH 857 0
DWIDTH 6 0
BBX 5 5 1 0
BITMAP
F0
88
F0
88
F0
ENDCHAR
STARTCHAR c
ENCODING 99
SWIDTH 857 0
DWIDTH 6 0
BBX 5 5 1 0
BITMAP
78
80
80
80
78
ENDCHAR
STARTCHAR d
ENCODING 100
SWIDTH 857 0
DWIDTH 6 0
BBX 5 5 1 0
BITMAP
F0
88
88
88
F0
ENDCHAR
STARTCHAR e
ENCODING 101
SWIDTH 857 0
DWIDTH 6 0
BBX 5 5 1 0
BITMAP
F8
80
E0
80
F8
ENDCHAR
STARTCHAR f
ENCODING 102
SWIDTH 857 0
DWIDTH 6 0
BBX 5 5 1 0
BITMAP
F8
80
F0
80
80
ENDCHAR
STARTCHAR g
ENCODING 103
SWIDTH 857 0
DWIDTH 6 0
BBX 5 5 1 0
BITMAP
78
80
B8
88
78
ENDCHAR
STARTCHAR h
ENCODING 104
SWIDTH 857 0
DWIDTH 6 0
BBX 5 5 1 0
BITMAP
88
88
F8
88
88
ENDCHAR
STARTCHAR i
ENCODING 105
SWIDTH 857 0
DWIDTH 6 0
BBX 5 5 1 0
BITMAP
F8
20
20
20
F8
ENDCHAR
STARTCHAR j
ENCODING 106
SWIDTH 857 0
DWIDTH 6 0
BBX 5 5 1 0
BITMAP
08
08
88
88
70
ENDCHAR
STARTCHAR k
ENCODING 107
SWIDTH 857 0
DWIDTH 6 0
BBX 5 5 1 0
BITMAP
88
90
E0
90
88
ENDCHAR
STARTCHAR l
ENCODING 108
SWIDTH 857 0
DWIDTH 6 0
BBX 5 5 1 0
BITMAP
80
80
80
80
F8
ENDCHAR
STARTCHAR m
ENCODING 109
SWIDTH 857 0
DWIDTH 6 0
BBX 5 5 1 0
BITMAP
88
D8
A8
A8
88
ENDCHAR
STARTCHAR n
ENCODING 110
SWIDTH 857 0
DWIDTH 6 0
BBX 5 5 1 0
BITMAP
88
C8
A8
98
88
ENDCHAR
STARTCHAR o
ENCODING 111
SWIDTH 857 0
DWIDTH 6 0
BBX 5 5 1 0
BITMAP
70
88
88
88
70
ENDCHAR
STARTCHAR p
ENCODING 112
SWIDTH 857 0
DWIDTH 6 0
BBX 5 5 1 0
BITMAP
F0
88
F0
80
80
ENDCHAR
STARTCHAR q
ENCODING 113
SWIDTH 857 0
DWIDTH 6 0
BBX 5 5 1 0
BITMAP
70
88
88
90
68
ENDCHAR
STARTCHAR r
ENCODING 114
SWIDTH 857 0
DWIDTH 6 0
BBX 5 5 1 0
BITMAP
F0
88
F0
90
88
ENDCHAR
STARTCHAR s
ENCODING 115
SWIDTH 857 0
DWIDTH 6 0
BBX 5 5 1 0
BITMAP
78
80
70
08
F0
ENDCHAR
STARTCHAR t
ENCODING 116
SWIDTH 857 0
DWIDTH 6 0
BBX 5 5 1 0
BITMAP
F8
20
20
20
20
ENDCHAR
STARTCHAR u
ENCODING 117
SWIDTH 857 0
DWIDTH 6 0
BBX 5 5 1 0
BITMAP
88
88
88
88
70
ENDCHAR
STARTCHAR v
ENCODING 118
SWIDTH 857 0
DWIDTH 6 0
BBX 5 5 1 0
BITMAP
88
88
88
50
20
ENDCHAR
STARTCHAR w
ENCODING 119
SWIDTH 857 0
DWIDTH 6 0
BBX 5 5 1 0
BITMAP
88
88
A8
A8
50
ENDCHAR
STARTCHAR x
ENCODING 120
SWIDTH 857 0
DWIDTH 6 0
BBX 5 5 1 0
BITMAP
88
50
20
50
88
ENDCHAR
STARTCHAR y
ENCODING 121
SWIDTH 857 0
DWIDTH 6 0
BBX 5 5 1 0
BITMAP
88
88
70
20
20
ENDCHAR
STARTCHAR z
ENCODING 122
SWIDTH 857 0
DWIDTH 6 0
BBX 5 5 1 0
BITMAP
F8
10
20
40
F8
ENDCHAR
STARTCHAR braceleft
ENCODING 123
SWIDTH 480 0
DWIDTH 3 0
BBX 3 5 1 0
BITMAP
60
40
80
40
60
ENDCHAR
STARTCHAR bar
ENCODING 124
SWIDTH 285 0
DWIDTH 2 0
BBX 1 5 1 0
BITMAP
80
80
80
80
80
ENDCHAR
STARTCHAR braceright
ENCODING 125
SWIDTH 623 0
DWIDTH 4 0
BBX 3 5 1 0
BITMAP
C0
40
20
40
C0
ENDCHAR
STARTCHAR asciitilde
ENCODING 126
SWIDTH 822 0
DWIDTH 6 0
BBX 5 2 1 1
BITMAP
68
B0
ENDCHAR
STARTCHAR degree
ENCODING 176
SWIDTH 571 0
DWIDTH 4 0
BBX 3 3 1 2
BITMAP
40
A0
40
ENDCHAR
ENDFONT
